<?xml version="1.0" encoding="UTF-8" standalone="no"?>
<!-- Created with Inkscape (http://www.inkscape.org/) -->

<svg
   version="1.1"
   id="svg179"
   width="1056"
   height="816"
   viewBox="0 0 1056 816"
   sodipodi:docname="signal-sleeve-20403.svg"
   inkscape:version="1.2.1 (9c6d41e410, 2022-07-14)"
   xmlns:inkscape="http://www.inkscape.org/namespaces/inkscape"
   xmlns:sodipodi="http://sodipodi.sourceforge.net/DTD/sodipodi-0.dtd"
   xmlns:xlink="http://www.w3.org/1999/xlink"
   xmlns="http://www.w3.org/2000/svg"
   xmlns:svg="http://www.w3.org/2000/svg">
  <defs
     id="defs183">
    <linearGradient
       id="linearGradient6573"
       inkscape:swatch="solid">
      <stop
         style="stop-color:#ffffff;stop-opacity:1;"
         offset="0"
         id="stop6571" />
    </linearGradient>
    <rect
       x="532.21437"
       y="72.574686"
       width="340.54276"
       height="182.36716"
       id="rect6503" />
    <linearGradient
       id="linearGradient5295"
       inkscape:swatch="solid">
      <stop
         style="stop-color:#000000;stop-opacity:1;"
         offset="0"
         id="stop5293" />
    </linearGradient>
    <linearGradient
       id="linearGradient5287"
       inkscape:swatch="solid">
      <stop
         style="stop-color:#000000;stop-opacity:1;"
         offset="0"
         id="stop5285" />
    </linearGradient>
    <linearGradient
       id="linearGradient5279"
       inkscape:swatch="solid">
      <stop
         style="stop-color:#000000;stop-opacity:1;"
         offset="0"
         id="stop5277" />
    </linearGradient>
    <linearGradient
       id="linearGradient5271"
       inkscape:swatch="solid">
      <stop
         style="stop-color:#000000;stop-opacity:1;"
         offset="0"
         id="stop5269" />
    </linearGradient>
    <linearGradient
       id="linearGradient2173"
       inkscape:swatch="solid">
      <stop
         style="stop-color:#000000;stop-opacity:1;"
         offset="0"
         id="stop2171" />
    </linearGradient>
    <linearGradient
       id="linearGradient1701"
       inkscape:swatch="solid">
      <stop
         style="stop-color:#000000;stop-opacity:1;"
         offset="0"
         id="stop1699" />
    </linearGradient>
    <linearGradient
       id="linearGradient1693"
       inkscape:swatch="solid">
      <stop
         style="stop-color:#000000;stop-opacity:1;"
         offset="0"
         id="stop1691" />
    </linearGradient>
    <linearGradient
       id="linearGradient1685"
       inkscape:swatch="solid">
      <stop
         style="stop-color:#000000;stop-opacity:1;"
         offset="0"
         id="stop1683" />
    </linearGradient>
    <linearGradient
       id="linearGradient1407"
       inkscape:swatch="solid">
      <stop
         style="stop-color:#000000;stop-opacity:1;"
         offset="0"
         id="stop1405" />
    </linearGradient>
    <linearGradient
       inkscape:collect="always"
       xlink:href="#linearGradient1685"
       id="linearGradient1687"
       x1="135.86126"
       y1="676.67458"
       x2="318.76406"
       y2="676.67458"
       gradientUnits="userSpaceOnUse" />
    <linearGradient
       inkscape:collect="always"
       xlink:href="#linearGradient1693"
       id="linearGradient1695"
       x1="452.65154"
       y1="727.82815"
       x2="633.25162"
       y2="727.82815"
       gradientUnits="userSpaceOnUse" />
    <linearGradient
       inkscape:collect="always"
       xlink:href="#linearGradient1701"
       id="linearGradient1703"
       x1="767.1391"
       y1="677.16803"
       x2="949.38398"
       y2="677.16803"
       gradientUnits="userSpaceOnUse" />
    <linearGradient
       inkscape:collect="always"
       xlink:href="#linearGradient2173"
       id="linearGradient2175"
       x1="26.974874"
       y1="455.44772"
       x2="246.72141"
       y2="455.44772"
       gradientUnits="userSpaceOnUse" />
    <linearGradient
       inkscape:collect="always"
       xlink:href="#linearGradient5271"
       id="linearGradient5273"
       x1="69.739918"
       y1="523.13162"
       x2="1017.6436"
       y2="523.13162"
       gradientUnits="userSpaceOnUse" />
    <linearGradient
       inkscape:collect="always"
       xlink:href="#linearGradient5279"
       id="linearGradient5281"
       x1="132.82098"
       y1="500.57925"
       x2="416.72292"
       y2="500.57925"
       gradientUnits="userSpaceOnUse" />
    <linearGradient
       inkscape:collect="always"
       xlink:href="#linearGradient5287"
       id="linearGradient5289"
       x1="423.81756"
       y1="541.86774"
       x2="662.0114"
       y2="541.86774"
       gradientUnits="userSpaceOnUse" />
    <linearGradient
       inkscape:collect="always"
       xlink:href="#linearGradient5295"
       id="linearGradient5297"
       x1="670.15279"
       y1="501.04447"
       x2="953.00798"
       y2="501.04447"
       gradientUnits="userSpaceOnUse" />
  </defs>
  <sodipodi:namedview
     id="namedview181"
     pagecolor="#ffffff"
     bordercolor="#000000"
     borderopacity="0.25"
     inkscape:showpageshadow="2"
     inkscape:pageopacity="0.0"
     inkscape:pagecheckerboard="0"
     inkscape:deskcolor="#d1d1d1"
     showgrid="false"
     inkscape:zoom="1.0747549"
     inkscape:cx="524.77081"
     inkscape:cy="408.93045"
     inkscape:window-width="2506"
     inkscape:window-height="1058"
     inkscape:window-x="47"
     inkscape:window-y="-6"
     inkscape:window-maximized="1"
     inkscape:current-layer="g185" />
  <g
     inkscape:groupmode="layer"
     inkscape:label="Image"
     id="g185">
    <path
       style="fill:#dbdbdb;fill-opacity:1;stroke-width:1;stroke-dasharray:none;stroke:url(#linearGradient5273)"
       d="m 246.88589,292.77607 50.49565,23.02733 54.11423,19.40875 52.96286,14.14536 55.92352,9.70438 54.44319,4.60547 56.74592,0.16448 55.43008,-5.09891 54.77215,-9.21093 54.27871,-14.30985 50.66013,-17.92842 53.45631,-24.34318 177.47496,346.8903 -68.25962,31.41586 -70.23336,26.48143 -73.85194,23.19182 -75.00331,15.62569 -63.48964,10.03333 -84.37872,6.74372 -78.45741,0.16448 -70.39784,-5.42787 -76.64812,-11.1847 -48.85084,-10.19782 -29.60657,-7.40164 -71.38473,-21.54701 -71.38473,-27.13935 -65.956852,-30.92242 z"
       id="path5213" />
    <path
       style="fill:#999999;fill-opacity:1;stroke-width:1;stroke-dasharray:none;stroke:url(#linearGradient2175)"
       d="M 203.6274,270.73563 246.72141,292.77607 69.739918,640.15981 26.974874,618.11937 Z"
       id="path2169" />
    <path
       style="fill:#ffffff;fill-opacity:1;stroke-width:1;stroke-dasharray:none;stroke:url(#linearGradient1695)"
       d="m 456.92805,702.33361 53.29182,2.96066 61.84484,0.65792 57.23936,-3.61858 3.94755,47.37051 -51.64702,3.61858 h -76.97708 l -51.97598,-3.61858 z"
       id="path1689" />
    <path
       style="fill:#ffffff;fill-opacity:1;stroke-width:1;stroke-dasharray:none;stroke:url(#linearGradient1703)"
       d="m 778.3238,727.00575 27.30384,-6.25028 72.70057,-22.3694 71.05577,-26.97488 -18.0929,-44.08089 -55.2656,21.38252 -53.62079,17.76394 -55.26559,13.8164 z"
       id="path1697" />
    <circle
       style="fill:#010101;fill-opacity:1;stroke-width:1;stroke-dasharray:none"
       id="path1976"
       cx="532.42474"
       cy="374.19412"
       r="5" />
    <circle
       style="fill:#010101;fill-opacity:1;stroke-width:1;stroke-dasharray:none"
       id="path1976-7"
       cx="555.61664"
       cy="374.02963"
       r="5" />
    <circle
       style="fill:#010101;fill-opacity:1;stroke-width:1;stroke-dasharray:none"
       id="path1976-7-3"
       cx="770.42871"
       cy="333.89597"
       r="5" />
    <circle
       style="fill:#010101;fill-opacity:1;stroke-width:1;stroke-dasharray:none"
       id="path1976-7-8"
       cx="726.677"
       cy="348.3707"
       r="5" />
    <circle
       style="fill:#010101;fill-opacity:1;stroke-width:1;stroke-dasharray:none"
       id="path1976-7-4"
       cx="748.71716"
       cy="341.56723"
       r="5" />
    <circle
       style="fill:#010101;fill-opacity:1;stroke-width:1;stroke-dasharray:none"
       id="path1976-7-82"
       cx="338.83081"
       cy="341.26456"
       r="5" />
    <path
       style="fill:#ffff00;fill-opacity:1;stroke-width:1;stroke-dasharray:none;stroke:url(#linearGradient5281)"
       d="m 258.43102,319.84037 49.89509,21.05131 53.15166,17.21322 55.24515,13.25884 -54.1984,280.87799 -3.02395,8.60662 -4.07069,6.3968 -5.58267,5.93159 -6.86203,4.41961 -8.60662,2.79134 -7.44355,0.93044 -7.79248,-0.93044 -57.10604,-14.88712 -53.84949,-18.49259 -53.15165,-20.12086 -7.90878,-4.65223 -5.46636,-5.46636 -4.53592,-6.2805 -2.55873,-7.44356 -1.74458,-8.83922 1.27936,-8.2577 2.55873,-7.90878 z"
       id="path5275" />
    <path
       style="fill:#00ffff;fill-opacity:1;stroke-width:1;stroke-dasharray:none;stroke:url(#linearGradient5289)"
       d="m 460.1049,377.76055 54.89624,5.11744 h 57.22235 l 54.1984,-4.88483 35.58951,282.62258 v 9.76967 l -2.0935,8.60661 -3.72178,6.97833 -5.58266,6.97834 -6.28051,4.41961 -6.97833,3.48917 -8.14139,1.39567 -56.29191,3.72178 -62.33979,-0.46523 -53.73318,-3.25655 -7.90878,-1.62828 -8.14139,-3.72178 -6.04789,-4.88484 -5.11745,-6.51311 -3.48917,-6.97833 -2.32611,-8.83923 0.46522,-8.83922 z"
       id="path5283" />
    <path
       style="fill:#ff00ff;fill-opacity:1;stroke-width:1;stroke-dasharray:none;stroke:url(#linearGradient5297)"
       d="m 670.15279,371.48005 55.12885,-13.25884 52.10491,-16.98062 51.40707,-21.16761 120.49258,258.1984 3.48917,8.60661 0.23261,8.14139 -0.93044,8.37401 -2.79134,7.21094 -5.11744,7.44356 -6.51311,5.35006 -6.28051,3.95439 -56.05929,21.40023 -52.57013,17.67845 -55.36145,14.18928 -9.07184,1.39566 -7.67617,-1.39566 -7.44356,-3.25656 -7.67617,-4.88483 -5.11744,-5.81528 -4.41961,-7.44356 -2.32612,-7.67617 z"
       id="path5291" />
    <text
       xml:space="preserve"
       id="text6501"
       style="white-space:pre;shape-inside:url(#rect6503);display:inline;fill:#000000;fill-opacity:1;stroke-width:1;stroke-dasharray:none" />
    <path
       style="fill:#ffffff;fill-opacity:1;stroke-width:1;stroke-dasharray:none;stroke:url(#linearGradient1687)"
       d="m 154.94104,626.67238 53.62079,20.7246 53.62079,18.0929 56.58144,14.47432 -10.52678,46.71259 -27.96176,-6.9082 -72.37161,-21.71149 -72.04265,-27.30383 z"
       id="path1465" />
    <text
       xml:space="preserve"
       style="font-size:48.2407px;fill:#000000;fill-opacity:1;stroke-width:4.02006;stroke-dasharray:none"
       x="476.98285"
       y="984.85419"
       id="text6123-5"
       transform="matrix(0.97648986,-0.35541324,0.32913174,0.90428202,0,0)"><tspan
         sodipodi:role="line"
         id="tspan6121-2"
         x="476.98285"
         y="984.85419"
         style="stroke-width:4.02006">20403</tspan><tspan
         sodipodi:role="line"
         x="476.98285"
         y="1045.155"
         id="tspan6437-8"
         style="stroke-width:4.02006" /></text>
    <text
       xml:space="preserve"
       style="font-size:48.2407px;fill:#000000;fill-opacity:1;stroke-width:4.02006;stroke-dasharray:none"
       x="442.71051"
       y="774.89618"
       id="text6123"
       transform="scale(1.0391588,0.96231682)"><tspan
         sodipodi:role="line"
         id="tspan6121"
         x="442.71051"
         y="774.89618"
         style="stroke-width:4.02006">20403</tspan><tspan
         sodipodi:role="line"
         x="442.71051"
         y="835.19708"
         id="tspan6437"
         style="stroke-width:4.02006" /></text>
    <text
       xml:space="preserve"
       style="font-size:48.2407px;fill:#000000;fill-opacity:1;stroke-width:4.02006;stroke-dasharray:none"
       x="347.8949"
       y="598.02759"
       id="text6123-2"
       transform="matrix(0.97648986,0.35541324,-0.32913174,0.90428202,0,0)"><tspan
         sodipodi:role="line"
         x="347.8949"
         y="598.02759"
         id="tspan6437-1"
         style="stroke-width:4.02006">20403</tspan></text>
  </g>
</svg>
